<?xml version="1.0" ?><!DOCTYPE svg  PUBLIC '-//W3C//DTD SVG 1.1//EN'  'http://www.w3.org/Graphics/SVG/1.1/DTD/svg11.dtd'><svg enable-background="new 0 0 130 130" height="130px" id="Layer_1" version="1.1" viewBox="0 0 130 130" width="130px" xml:space="preserve" xmlns="http://www.w3.org/2000/svg" xmlns:xlink="http://www.w3.org/1999/xlink"><g><g><g><g><g><g><g><g><path d="M105.133,10.224l-12.82-7.345c-0.561-0.409-1.162-0.754-1.801-1.032l-0.189-0.107l-0.008,0.016          c-3.449-1.402-7.904-0.896-12.764,1.909L38.064,26.46c-10.857,6.269-19.74,21.655-19.74,34.193v45.591          c0,6.114,2.123,10.45,5.547,12.577l-0.033,0.06l14.248,8.073l8.012-13.95l31.453-18.157          c10.855-6.269,19.74-21.656,19.74-34.193V23.876L105.133,10.224z" fill="#FFA750"/><path d="M105.133,10.224L91.41,7.005c-0.561-0.408-3.363-0.398-4.002-0.678l-1.018-0.406L84.559,5.58          c-3.449-1.402-2.148-4.721-7.008-1.916L38.064,26.46c-10.857,6.269-19.74,21.655-19.74,34.193v45.591          c0,6.114,2.123,10.45,5.547,12.577l-0.033,0.06l14.248,8.073l8.012-13.95l31.453-18.157          c10.855-6.269,19.74-21.656,19.74-34.193V23.876L105.133,10.224z" fill="#FA9826"/><path d="M19.076,54.085c-0.479,2.232-0.752,4.442-0.752,6.568v45.591c0,6.114,2.123,10.45,5.547,12.577          l-0.033,0.06l14.248,8.073l8.012-13.95l31.453-18.157c1.844-1.065,3.627-2.41,5.322-3.945L19.076,54.085z" fill="#EA7B0C"/><g><path d="M51.635,34.329c-10.857,6.268-19.742,21.656-19.742,34.193v45.592           c0,12.537,8.885,17.666,19.742,11.396l39.484-22.795c10.857-6.268,19.742-21.655,19.742-34.193V22.931           c0-12.537-8.885-17.665-19.742-11.396L51.635,34.329z" fill="#FFFFFF"/><path d="M110.861,22.931c0-12.537-8.885-17.665-19.742-11.396L51.635,34.329           c-10.857,6.268-19.742,21.656-19.742,34.193v45.592c0,12.537,8.885,17.666,19.742,11.396" fill="#5BC0D8" opacity="0.1"/><path d="M42.865,129h-0.002c-7.158,0-11.783-5.843-11.783-14.886V68.522           c0-12.828,9.037-28.484,20.146-34.898l39.486-22.795c3.201-1.848,6.289-2.784,9.178-2.784           c7.158,0,11.785,5.844,11.785,14.886v45.592c0,12.829-9.039,28.484-20.148,34.898l-39.486,22.795           C48.84,128.063,45.754,129,42.865,129z M99.891,9.673c-2.6,0-5.414,0.863-8.363,2.564L52.041,35.034           c-10.66,6.155-19.334,21.178-19.334,33.488v45.592c0,8.178,3.891,13.258,10.156,13.258h0.002           c2.6,0,5.412-0.863,8.361-2.564l39.486-22.797c10.66-6.154,19.334-21.178,19.334-33.488V22.931           C110.047,14.753,106.156,9.673,99.891,9.673z" fill="#FFFFFF"/></g></g></g></g></g></g></g></g><g><g enable-background="new    "><g><path d="M65.035,85.628c-1.525,0.881-2.762,0.162-2.768-1.54c-0.004-1.732,1.223-3.852,2.75-4.732l16.211-9.359      c1.506-0.87,2.748-0.178,2.754,1.555c0.004,1.702-1.23,3.848-2.736,4.718L65.035,85.628 M64.98,66.787      c-1.525,0.882-2.762,0.162-2.766-1.562c-0.006-1.724,1.223-3.852,2.748-4.732l7.975-4.604c1.527-0.881,2.762-0.176,2.768,1.548      c0.004,1.725-1.223,3.866-2.75,4.747L64.98,66.787 M74.803,41.32L64.74,47.131c-7.916,4.57-14.363,15.729-14.338,24.789      l0.055,19.229c0.025,9.046,6.514,12.722,14.432,8.15l16.535-9.547c7.918-4.571,14.32-15.689,14.346-24.765l0.051-13.367      c0,0-0.004-1.65-1.168-1.545c-0.959,0.084-5.068,2.979-6.215,2.457c-0.809-0.395-0.863-1.912-1.182-3.793      c-0.541-3.143-0.76-3.803-1.312-4.842C83.938,40.198,79.145,38.814,74.803,41.32" fill="#FA9826"/></g></g></g><path d="M94.652,50.076c-0.959,0.084-5.068,2.979-6.215,2.457c-0.809-0.395-0.863-1.912-1.182-3.793   c-0.541-3.143-0.76-3.803-1.312-4.842c-2.006-3.7-6.799-5.084-11.141-2.578L64.74,47.131c-7.916,4.57-14.363,15.729-14.338,24.789   l0.055,19.229c0.025,9.046,6.514,12.722,14.432,8.15l2.82-1.628L79.477,77.29l-14.441,8.338c-1.525,0.881-2.762,0.162-2.768-1.54   c-0.004-1.732,1.223-3.852,2.75-4.732l16.211-9.359c0.996-0.576,1.869-0.456,2.352,0.186l11.557-20.014   C95,50.103,94.848,50.059,94.652,50.076z M72.955,62.184l-7.975,4.604c-1.525,0.882-2.762,0.162-2.766-1.562   c-0.006-1.724,1.223-3.852,2.748-4.732l7.975-4.604c1.527-0.881,2.762-0.176,2.768,1.548   C75.709,59.161,74.482,61.303,72.955,62.184z" fill="#FB6620"/></g></svg>